<svg width="1470" height="616" viewBox="0 0 1470 616" fill="none" xmlns="http://www.w3.org/2000/svg">
    <style>
        @keyframes wave {
        0% { transform: translateX(0px); }
        50% { transform: translateX(-24px); }
        100% { transform: translateX(0px); }
        }
        path {
        animation: wave 3s ease-in-out infinite;
        }
        path:nth-child(1) { animation-delay: 0s; }
        path:nth-child(2) { animation-delay: 0.2s; }
        path:nth-child(3) { animation-delay: 0.4s; }
        path:nth-child(4) { animation-delay: 0.6s; }
        path:nth-child(5) { animation-delay: 0.8s; }
        path:nth-child(6) { animation-delay: 1s; }
    </style>
    <g opacity="0.5" clip-path="url(#clip0_122_3408)" style="transform: scaleX(1.02) scaleY(2);">
        <path d="M1470 308V63.9194C1279.64 63.9194 1156.18 0.000488281 1027.14 0.000488281C898.096 0.000488281 833.319 77.2298 633.938 77.2298C434.557 77.2298 457.072 14.9777 346.822 14.9777C236.572 14.9777 88.8125 75.877 0 60.6582V308H1470Z"
              fill="#B3E8FF"/>
        <path d="M1470 308V109.237C1332.19 109.237 1278.53 55.9717 1159.46 55.9717C990.045 55.9717 959.665 172.359 719.345 135.713C577.343 114.069 539.857 57.0587 428.872 57.0587C239.978 57.0587 228.217 118.32 0 118.32V308H1470Z"
              fill="#6FD4FF"/>
        <path d="M1470 308V150.497L1469.8 148.758C1242.13 148.758 1157.4 109.262 1004.52 109.262C851.645 109.262 803.355 162.817 689.822 164.532C578.053 166.248 583.223 133.539 403.148 133.539C223.073 133.539 131.198 198.038 0 155.812V308H1470Z"
              fill="#40BFF5"/>
        <path d="M1470 190.646C1423.84 178.616 1384.05 164.871 1293.16 164.871C1131.51 164.871 1131.51 208.353 969.857 208.353C808.206 208.353 808.206 155.812 646.58 155.812C484.953 155.812 484.928 217.412 323.302 217.412C161.675 217.412 161.651 173.929 0 173.929V308H1470V190.646Z"
              fill="#23B3FA"/>
        <path d="M881.804 251.666C734.804 251.666 734.804 208.184 587.804 208.184C440.804 208.184 440.804 251.666 293.804 251.666C146.804 251.666 146.804 208.208 0 208.184V307.999H1469.8V251.666C1322.8 251.666 1322.8 208.184 1175.8 208.184C1028.8 208.184 1028.8 251.666 881.804 251.666Z"
              fill="#229BF2"/>
        <path d="M823.42 286.452C661.769 286.452 661.77 242.969 500.143 242.969C338.517 242.969 338.492 286.452 176.866 286.452C15.239 286.452 46.158 272.682 0 260.652V308H1470V273.745C1308.35 273.745 1308.35 242.945 1146.7 242.945C985.047 242.945 985.047 286.428 823.396 286.428L823.42 286.452Z"
              fill="#1683E0"/>
    </g>
    <defs>
        <clipPath id="clip0_122_3408">
            <rect width="1470" height="616" fill="white"/>
        </clipPath>
    </defs>
</svg>
